<?xml version="1.0" encoding="UTF-8"?>
<svg xmlns="http://www.w3.org/2000/svg" id="Layer_1" data-name="Layer 1" viewBox="0 0 24 24">
  <path d="M16.843,11.778c-.058-.116-1.446-2.868-4.214-4.126-.254-.116-.548-.003-.662,.248-.114,.251-.003,.548,.248,.662,2.01,.914,3.234,2.793,3.609,3.438-.375,.645-1.6,2.523-3.609,3.438-.251,.114-.362,.411-.248,.662,.083,.184,.265,.293,.456,.293,.069,0,.139-.014,.207-.045,2.768-1.258,4.156-4.009,4.214-4.125,.069-.14,.069-.304,0-.444Z"/>
  <path d="M11.998,11.729c-.058-.089-1.446-2.201-4.186-3.447-.253-.115-.548-.003-.662,.248-.114,.251-.003,.548,.248,.662,1.91,.868,3.112,2.231,3.561,2.808-.449,.577-1.65,1.939-3.561,2.807-.251,.114-.362,.411-.248,.662,.083,.184,.265,.293,.456,.293,.069,0,.139-.014,.207-.045,2.74-1.246,4.128-3.356,4.186-3.446,.107-.165,.107-.378,0-.543Z"/>
</svg>
