<?xml version="1.0" encoding="UTF-8"?>
<svg xmlns="http://www.w3.org/2000/svg" id="Layer_1" data-name="Layer 1" viewBox="0 0 24 24">
  <path d="M22.527,11.816c-.063-.156-1.61-3.852-7.476-6.661-.247-.118-.547-.015-.667,.235-.119,.249-.014,.547,.235,.667,4.039,1.934,5.894,4.295,6.608,5.444H5.596c-.276,0-.5,.224-.5,.5s.224,.5,.5,.5h15.627c-.721,1.15-2.59,3.524-6.602,5.445-.249,.12-.354,.418-.235,.667,.086,.18,.265,.284,.451,.284,.073,0,.146-.016,.216-.049,5.787-2.771,7.405-6.493,7.472-6.65,.052-.122,.053-.261,.004-.383Z"/>
  <path d="M8.109,22.004c-2.162-.283-3.866-.672-4.506-.828-.27-.998-1.167-4.66-1.167-9.174S3.335,3.823,3.604,2.828c.635-.158,2.328-.549,4.506-.832,.273-.035,.467-.286,.432-.56-.036-.274-.296-.467-.561-.431-2.844,.369-4.829,.905-4.912,.928-.165,.045-.297,.172-.347,.337-.053,.173-1.285,4.293-1.285,9.734s1.232,9.561,1.285,9.733c.051,.165,.183,.293,.35,.337,.084,.022,2.088,.553,4.909,.922,.021,.003,.044,.004,.065,.004,.247,0,.462-.183,.495-.435,.035-.274-.157-.525-.432-.561Z"/>
</svg>
