<?xml version="1.0" encoding="UTF-8"?>
<svg xmlns="http://www.w3.org/2000/svg" id="Layer_1" data-name="Layer 1" viewBox="0 0 24 24">
  <path d="M20.36,15.333c.216-.056,.408-.182,.544-.358,.144-.188,.887-1.306,1.297-4.946,.323-2.842-.307-5.354-.334-5.459-.096-.375-.4-.662-.78-.735-.135-.026-3.353-.639-7.139-.639-2.791,0-5.799,.333-7.241,.516-.38-1.182-.732-1.817-.749-1.849-.105-.187-.266-.334-.46-.422-.133-.061-1.352-.584-2.908-.402-.548,.065-.94,.564-.875,1.113,.065,.548,.548,.942,1.113,.875,.636-.075,1.203,.037,1.535,.132,.154,.348,.404,.975,.644,1.861,.002,.006,.415,2.604,.687,5.01,.34,3.01,.652,4.194,.775,4.576,.42,2.733,1.022,3.651,1.14,3.808,.137,.183,.332,.314,.553,.37,.104,.026,2.587,.651,6.412,.651s6.309-.625,6.412-.651c.536-.137,.858-.682,.721-1.218-.137-.537-.683-.859-1.218-.721-.022,.006-2.341,.588-5.916,.588-2.668,0-4.652-.328-5.486-.495-.102-.253-.248-.68-.398-1.338,1.203,.178,3.061,.383,5.256,.383,3.825,0,6.309-.625,6.412-.651Z"/>
  <circle cx="10.509" cy="21.518" r="1.482"/>
  <circle cx="17.675" cy="21.518" r="1.482"/>
</svg>
