<?xml version="1.0" encoding="UTF-8"?>
<svg xmlns="http://www.w3.org/2000/svg" id="Layer_1" data-name="Layer 1" viewBox="0 0 24 24">
  <path d="M18.5,11c3.033,0,5.5-2.468,5.5-5.5S21.533,0,18.5,0s-5.5,2.468-5.5,5.5,2.467,5.5,5.5,5.5Zm0-10c2.481,0,4.5,2.019,4.5,4.5s-2.019,4.5-4.5,4.5-4.5-2.019-4.5-4.5,2.019-4.5,4.5-4.5Zm-.354,4.854c-.094-.094-.146-.221-.146-.354V3c0-.276,.224-.5,.5-.5s.5,.224,.5,.5v2.293l1.354,1.354c.195,.195,.195,.512,0,.707-.098,.098-.226,.146-.354,.146s-.256-.049-.354-.146l-1.5-1.5Zm-1.146,14.146c-1.103,0-2,.897-2,2s.897,2,2,2,2-.897,2-2-.897-2-2-2Zm0,3c-.551,0-1-.448-1-1s.449-1,1-1,1,.448,1,1-.449,1-1,1Zm-10-3c-1.103,0-2,.897-2,2s.897,2,2,2,2-.897,2-2-.897-2-2-2Zm0,3c-.551,0-1-.448-1-1s.449-1,1-1,1,.448,1,1-.449,1-1,1Zm15.565-10.264c-.8,1.396-2.297,2.264-3.906,2.264H6.02c.247,1.711,1.732,3,3.462,3h10.017c.276,0,.5,.224,.5,.5s-.224,.5-.5,.5H9.483c-2.234,0-4.15-1.669-4.457-3.882L3.245,2.293c-.103-.737-.742-1.293-1.486-1.293H.5c-.276,0-.5-.224-.5-.5S.224,0,.5,0H1.759c1.24,0,2.305,.927,2.476,2.155l.256,1.845h6.009c.276,0,.5,.224,.5,.5s-.224,.5-.5,.5H4.63l1.25,9h12.78c1.251,0,2.416-.675,3.039-1.762,.136-.24,.442-.321,.682-.185s.323,.442,.185,.683Z"/>
</svg>
