<?xml version="1.0" encoding="UTF-8"?>
<svg xmlns="http://www.w3.org/2000/svg" id="Layer_1" data-name="Layer 1" viewBox="0 0 24 24">
  <path d="M21.017,15.462c.108-.027,.204-.09,.271-.178,.087-.112,.861-1.205,1.304-5.097,.34-2.993-.324-5.63-.353-5.74-.048-.188-.2-.33-.39-.367-.146-.027-3.62-.686-7.715-.686-3.358,0-7.11,.456-8.364,.622-.446-1.499-.896-2.335-.917-2.373-.053-.096-.135-.172-.233-.217-.053-.022-1.29-.578-2.87-.388-.273,.032-.47,.281-.437,.556,.033,.275,.286,.472,.556,.437,.992-.116,1.845,.128,2.185,.248,.157,.328,.526,1.16,.866,2.401,.047,.29,.447,2.778,.756,5.507,.39,3.422,.749,4.643,.84,4.915,.449,2.941,1.075,3.844,1.146,3.938,.068,.092,.165,.156,.276,.185,.11,.028,2.763,.692,6.883,.692s6.771-.664,6.882-.692c.268-.068,.43-.34,.361-.607-.067-.268-.339-.434-.607-.361-.026,.007-2.642,.661-6.636,.661-3.357,0-5.75-.465-6.436-.615-.15-.296-.48-1.082-.773-2.694,1.141,.201,3.539,.547,6.521,.547,4.119,0,6.771-.664,6.882-.692ZM14.135,4.395c3.297,0,6.252,.45,7.205,.611,.158,.763,.513,2.83,.258,5.068-.327,2.876-.835,4.093-1.024,4.464-.68,.15-3.067,.616-6.438,.616-3.288,0-5.901-.444-6.739-.604-.131-.487-.415-1.76-.725-4.476-.245-2.158-.546-4.169-.688-5.076,1.303-.171,4.918-.604,8.151-.604Z"/>
  <circle cx="10.37" cy="22.255" r=".745"/>
  <circle cx="18.219" cy="22.25" r=".745"/>
</svg>
