<?xml version="1.0" encoding="UTF-8"?>
<svg xmlns="http://www.w3.org/2000/svg" id="Layer_1" data-name="Layer 1" viewBox="0 0 24 24">
  <path d="M12,3.5c0-1.93-1.57-3.5-3.5-3.5H3.5C1.57,0,0,1.57,0,3.5V11.708c-.012,.469,.249,.902,.681,1.135,.194,.104,.404,.156,.612,.156,.259,0,.517-.081,.745-.244l2.141-1.755h4.321c1.93,0,3.5-1.57,3.5-3.5V3.5Zm-1,4c0,1.379-1.122,2.5-2.5,2.5H4c-.116,0-.228,.04-.317,.113l-2.252,1.848c-.112,.079-.241,.021-.278,0-.037-.02-.158-.095-.154-.23,0-.005,0-.011,0-.016V3.5c0-1.379,1.122-2.5,2.5-2.5h5c1.378,0,2.5,1.121,2.5,2.5V7.5Zm-2.539-3.5c-.095,.797-.438,2.384-1.608,3.56,.608,.288,1.32,.44,2.146,.44,.276,0,.5,.224,.5,.5s-.224,.5-.5,.5c-1.278,0-2.247-.308-3-.767-.753,.46-1.724,.767-3,.767-.276,0-.5-.224-.5-.5s.224-.5,.5-.5c.875,0,1.574-.171,2.142-.44-.578-.58-.964-1.253-1.204-1.882-.098-.258,.031-.547,.289-.645,.257-.101,.546,.03,.646,.289,.266,.697,.646,1.255,1.129,1.681,1.065-.93,1.373-2.279,1.462-3.003H3c-.276,0-.5-.224-.5-.5s.224-.5,.5-.5h2.5v-.5c0-.276,.224-.5,.5-.5s.5,.224,.5,.5v.5h2.5c.276,0,.5,.224,.5,.5s-.224,.5-.5,.5h-.539Zm12.039,7h-5c-1.93,0-3.5,1.57-3.5,3.5v4c0,1.93,1.57,3.5,3.5,3.5h4.321l2.167,1.775c.21,.149,.458,.226,.709,.226,.21,0,.423-.053,.621-.158,.435-.233,.696-.672,.681-1.128V14.5c0-1.93-1.57-3.5-3.5-3.5Zm2.347,11.961c-.038,.02-.168,.079-.251,.021l-2.279-1.868c-.089-.073-.201-.113-.317-.113h-4.5c-1.378,0-2.5-1.121-2.5-2.5v-4c0-1.379,1.122-2.5,2.5-2.5h5c1.378,0,2.5,1.121,2.5,2.5v8.23c.004,.136-.116,.211-.153,.23Zm-4.847-9.961c-.937,0-1.527,.877-1.646,1.492l-1.016,4.906c-.056,.271,.118,.535,.388,.591,.034,.008,.068,.011,.102,.011,.232,0,.44-.162,.489-.398l.228-1.102h2.85l.21,1.094c.052,.272,.312,.445,.585,.397,.271-.052,.449-.314,.397-.585l-.935-4.877c-.148-.76-.763-1.529-1.654-1.529Zm-1.247,4.5l.582-2.812c.039-.203,.285-.688,.665-.688,.398,0,.628,.495,.672,.719l.533,2.781h-2.452ZM14,.5c0-.276,.224-.5,.5-.5h3c1.93,0,3.5,1.57,3.5,3.5V7.71l2.153-2.07c.199-.192,.516-.184,.707,.014,.191,.199,.185,.516-.014,.707l-2.301,2.212c-.286,.286-.664,.429-1.043,.429-.381,0-.764-.145-1.055-.436l-2.294-2.205c-.199-.191-.205-.508-.014-.707,.191-.197,.508-.206,.707-.014l2.153,2.07V3.5c0-1.379-1.122-2.5-2.5-2.5h-3c-.276,0-.5-.224-.5-.5Z"/>
</svg>
