<svg id="Layer_1" viewBox="0 0 24 24" xmlns="http://www.w3.org/2000/svg" data-name="Layer 1"><path d="m20.942 4.278c-.044-.081-.114-.142-.179-.203-2.59-1.601-5.516-2.634-8.695-3.069-.045-.006-.091-.006-.136 0-3.179.436-6.104 1.469-8.695 3.069-.147.092-.237.253-.237.426s.09.334.237.426c1.264.781 2.611 1.422 4.025 1.93-.173.602-.262 1.303-.262 2.145 0 3.505 1.495 5 5 5s5-1.495 5-5c0-.841-.09-1.543-.262-2.145 1.139-.409 2.22-.927 3.262-1.513v5.158c0 .276.224.5.5.5s.5-.224.5-.5v-6.002c0-.081-.024-.155-.058-.222zm-4.942 4.722c0 2.953-1.047 4-4 4s-4-1.047-4-4c0-.739.074-1.344.218-1.851 1.197.37 2.429.669 3.715.846.045.006.091.006.136 0 1.286-.176 2.518-.476 3.715-.846.143.506.217 1.111.217 1.851zm-4-2.005c-2.722-.381-5.246-1.219-7.516-2.495 2.271-1.276 4.794-2.114 7.516-2.495 2.722.381 5.246 1.219 7.516 2.495-2.271 1.276-4.794 2.114-7.516 2.495zm8.999 15.466c.021.275-.184.516-.459.537-.014 0-.027.002-.04.002-.258 0-.477-.198-.498-.461-.246-3.11-1.351-4.93-3.566-5.839-1.99 3.104-4.118 4.2-4.211 4.246-.142.072-.309.072-.449 0-.093-.046-2.221-1.143-4.211-4.246-2.215.909-3.32 2.729-3.566 5.839-.022.276-.254.482-.538.459-.275-.021-.48-.263-.459-.537.292-3.681 1.755-5.855 4.606-6.846.224-.076.469.012.591.213 1.528 2.515 3.205 3.719 3.801 4.093.597-.374 2.273-1.578 3.801-4.093.123-.201.368-.289.591-.213 2.852.99 4.315 3.166 4.606 6.846z"/></svg>